<?xml version="1.0" encoding="utf-8"?>
<!-- Generator: Adobe Illustrator 16.0.4, SVG Export Plug-In . SVG Version: 6.00 Build 0)  -->
<!DOCTYPE svg PUBLIC "-//W3C//DTD SVG 1.1//EN" "http://www.w3.org/Graphics/SVG/1.1/DTD/svg11.dtd">
<svg version="1.1" xmlns="http://www.w3.org/2000/svg" xmlns:xlink="http://www.w3.org/1999/xlink" x="0px" y="0px" width="288px"
	 height="132px" viewBox="0 0 288 132" enable-background="new 0 0 288 132" xml:space="preserve">
<g id="Background">
	<g>
		<g>
		</g>
		<g>
		</g>
	</g>
</g>
<g id="Boxes">
</g>
<g id="Text">
</g>
<g id="Arrows">
</g>
<g id="Dashed">
	<g>
		<rect x="12" y="48" fill="#FFFFFF" stroke="#000000" width="48" height="24"/>
		<line fill="none" stroke="#000000" x1="36" y1="48" x2="36" y2="72"/>
	</g>
	<g>
		<rect x="96" y="48" fill="#FFFFFF" stroke="#000000" width="48" height="24"/>
		<line fill="none" stroke="#000000" x1="120" y1="48" x2="120" y2="72"/>
	</g>
	<g>
		<rect x="180" y="48" fill="#FFFFFF" stroke="#000000" width="48" height="24"/>
		<line fill="none" stroke="#000000" x1="204" y1="48" x2="204" y2="72"/>
	</g>
	<g>
		<g>
			<g>
				<line fill="none" stroke="#000000" x1="48" y1="60" x2="88.939" y2="60"/>
				<g>
					<polygon points="96,60 86.051,64.065 88.412,60 86.051,55.936 					"/>
				</g>
			</g>
		</g>
		<circle cx="48" cy="60" r="3"/>
	</g>
	<g>
		<g>
			<g>
				<line fill="none" stroke="#000000" x1="23.999" y1="60" x2="23.999" y2="88.939"/>
				<g>
					<polygon points="23.999,96 19.933,86.051 23.999,88.412 28.063,86.051 					"/>
				</g>
			</g>
		</g>
		<circle cx="23.999" cy="60" r="3"/>
	</g>
	<g>
		<g>
			<g>
				<line fill="none" stroke="#000000" x1="108" y1="60" x2="108" y2="88.939"/>
				<g>
					<polygon points="108,96 103.935,86.051 108,88.412 112.064,86.051 					"/>
				</g>
			</g>
		</g>
		<circle cx="108" cy="60" r="3"/>
	</g>
	<g>
		<g>
			<g>
				<line fill="none" stroke="#000000" x1="191.463" y1="60" x2="191.463" y2="88.939"/>
				<g>
					<polygon points="191.463,96 187.397,86.051 191.463,88.412 195.527,86.051 					"/>
				</g>
			</g>
		</g>
		<circle cx="191.463" cy="60" r="3"/>
	</g>
	<g>
		<g>
			<g>
				<line fill="none" stroke="#000000" x1="132" y1="60" x2="172.939" y2="60"/>
				<g>
					<polygon points="180,60 170.051,64.065 172.412,60 170.051,55.936 					"/>
				</g>
			</g>
		</g>
		<circle cx="132" cy="60" r="3"/>
	</g>
	<g>
		<circle cx="216" cy="60" r="3"/>
	</g>
	<g>
		<g>
			<polyline fill="none" stroke="#000000" points="216,60 252,60 252,88.939 			"/>
			<g>
				<polygon points="252,96 247.935,86.051 252,88.412 256.064,86.051 				"/>
			</g>
		</g>
	</g>
	<text transform="matrix(1 0 0 1 246.999 108)" font-family="'Helvetica'" font-size="12">[ ]</text>
	<text transform="matrix(1 0 0 1 68.4097 21.6914)"><tspan x="0" y="0" font-family="'Myriad-Roman'" font-size="12">“Chicago” :: “Paris” :: “Tokyo” :: [ ]</tspan><tspan x="-20.802" y="14.4" font-family="'Myriad-Roman'" font-size="12">    (same as [“Chicago”;  “Paris”;  “Tokyo”])</tspan></text>
	<text transform="matrix(1 0 0 1 11.3105 108.0005)" font-family="'Myriad-Roman'" font-size="12">“Chicago”</text>
	<text transform="matrix(1 0 0 1 91.9263 108.0005)" font-family="'Myriad-Roman'" font-size="12">“Paris”</text>
	<text transform="matrix(1 0 0 1 172.542 108.0005)" font-family="'Myriad-Roman'" font-size="12">“Tokyo”</text>
</g>
</svg>
