<?xml version="1.0" encoding="UTF-8" standalone="no"?>
<svg
   xmlns:osb="http://www.openswatchbook.org/uri/2009/osb"
   xmlns:dc="http://purl.org/dc/elements/1.1/"
   xmlns:cc="http://creativecommons.org/ns#"
   xmlns:rdf="http://www.w3.org/1999/02/22-rdf-syntax-ns#"
   xmlns:svg="http://www.w3.org/2000/svg"
   xmlns="http://www.w3.org/2000/svg"
   xmlns:sodipodi="http://sodipodi.sourceforge.net/DTD/sodipodi-0.dtd"
   xmlns:inkscape="http://www.inkscape.org/namespaces/inkscape"
   version="1.1"
   id="Layer_19"
   x="0px"
   y="0px"
   width="2.8584776in"
   height="0.65077281in"
   viewBox="0 0 257.26299 58.569557"
   enable-background="new 0 0 100 100"
   xml:space="preserve"
   inkscape:version="0.91 r13725"
   sodipodi:docname="alcotest-logo.svg"
   inkscape:export-filename="/home/lwzukw/Documents/code/alcotest/alcotest-logo.png"
   inkscape:export-xdpi="0.9803921"
   inkscape:export-ydpi="0.9803921"><metadata
     id="metadata9"><rdf:RDF><cc:Work
         rdf:about=""><dc:format>image/svg+xml</dc:format><dc:type
           rdf:resource="http://purl.org/dc/dcmitype/StillImage" /><dc:title></dc:title><cc:license
           rdf:resource="http://creativecommons.org/publicdomain/zero/1.0/" /></cc:Work><cc:License
         rdf:about="http://creativecommons.org/publicdomain/zero/1.0/"><cc:permits
           rdf:resource="http://creativecommons.org/ns#Reproduction" /><cc:permits
           rdf:resource="http://creativecommons.org/ns#Distribution" /><cc:permits
           rdf:resource="http://creativecommons.org/ns#DerivativeWorks" /></cc:License></rdf:RDF></metadata><defs
     id="defs7"><linearGradient
       id="linearGradient20760"
       osb:paint="gradient"><stop
         style="stop-color:#333333;stop-opacity:1;"
         offset="0"
         id="stop20762" /><stop
         style="stop-color:#333333;stop-opacity:0;"
         offset="1"
         id="stop20764" /></linearGradient></defs><sodipodi:namedview
     pagecolor="#ffffff"
     bordercolor="#666666"
     borderopacity="1"
     objecttolerance="10000"
     gridtolerance="10000"
     guidetolerance="10000"
     inkscape:pageopacity="0"
     inkscape:pageshadow="2"
     inkscape:window-width="1280"
     inkscape:window-height="995"
     id="namedview5"
     showgrid="true"
     inkscape:zoom="1.4142136"
     inkscape:cx="107.53558"
     inkscape:cy="43.307653"
     inkscape:window-x="0"
     inkscape:window-y="1"
     inkscape:window-maximized="1"
     inkscape:current-layer="Layer_19"
     showguides="true"
     inkscape:guide-bbox="true"
     inkscape:snap-perpendicular="true"
     inkscape:snap-tangential="true"
     inkscape:snap-path-clip="true"
     inkscape:snap-path-mask="true"
     units="in"
     fit-margin-top="0.01"
     fit-margin-right="0.01"
     fit-margin-bottom="0.01"
     fit-margin-left="0.01"><inkscape:grid
       type="xygrid"
       id="grid20613"
       spacingx="0.5"
       spacingy="0.5"
       dotted="true"
       empspacing="10"
       originx="-1.1339039"
       originy="13.262789" /></sodipodi:namedview><path
     d="m 8.9918324,-54.271891 0,-0.08667 -0.02569,0 -1.07e-4,0 -0.02569,0 0,0.08667 c -0.138084,0.08292 -0.04126,0.17859 -0.04126,0.17859 l 0.06695,0 1.07e-4,0 0.06695,0 c 0,0 0.09684,-0.09567 -0.04127,-0.178594 z m -0.01491,6.2e-4 c 0,0 -0.09053,0.06218 -0.03841,0.152721 l -0.03967,0 c -0.0192,-0.03396 -0.03463,-0.09663 0.05981,-0.153343 l 0,-0.06838 0.01827,0 0,0.069 z"
     id="path3-8"
     inkscape:connector-curvature="0"
     sodipodi:nodetypes="ccccccccccccccccccc"
     style="fill:#f69700;fill-opacity:0.91266342"
     inkscape:tile-cx="10.099998"
     inkscape:tile-cy="0.46736875"
     inkscape:tile-w="0.20000239"
     inkscape:tile-h="0.2652625"
     inkscape:tile-x0="9.9999964"
     inkscape:tile-y0="0.3347375" /><g
     id="g20798"
     transform="matrix(2.8384776,0,0,2.8384776,-231.98391,-270.22427)"><rect
       ry="4.9999957"
       y="95.517494"
       x="82.045357"
       height="20"
       width="90"
       id="rect20748"
       style="color:#000000;clip-rule:nonzero;display:inline;overflow:visible;visibility:visible;opacity:1;isolation:auto;mix-blend-mode:normal;color-interpolation:sRGB;color-interpolation-filters:linearRGB;solid-color:#000000;solid-opacity:1;fill:#241200;fill-opacity:1;fill-rule:nonzero;stroke:none;stroke-width:0.80000007;stroke-linecap:butt;stroke-linejoin:miter;stroke-miterlimit:4;stroke-dasharray:none;stroke-dashoffset:0;stroke-opacity:1;color-rendering:auto;image-rendering:auto;shape-rendering:auto;text-rendering:auto;enable-background:accumulate" /><path
       style="fill:#1c9700;fill-opacity:1"
       sodipodi:nodetypes="ccccccccccccccccccc"
       inkscape:connector-curvature="0"
       id="path3"
       d="m 92.104344,104.08817 0,-3.49494 -1.035756,0 -0.0044,0 -1.035755,0 0,3.49509 c -5.568601,3.34388 -1.66402,7.20164 -1.66402,7.20164 l 2.699774,0 0.0044,0 2.699775,0 c 0,0 3.904996,-3.85776 -1.664019,-7.20179 z m -0.601492,0.0252 c 0,0 -3.650584,2.5076 -1.548796,6.15846 l -1.599961,0 c -0.774188,-1.36951 -1.396565,-3.89673 2.411995,-6.18354 l 0,-2.75749 0.736762,0 0,2.78258 z" /><path
       d="m 99.756928,107.30236 0.400572,-1.33523 c 0.31156,-1.05336 0.62311,-2.13638 0.905,-3.23424 l 0.0593,0 c 0.29672,1.08302 0.60827,2.18088 0.91983,3.23424 l 0.40057,1.33523 -2.685312,0 z m 3.857352,3.9612 1.57261,0 -3.20456,-9.71755 -1.72097,0 -3.204572,9.71755 1.51327,0 0.83081,-2.78916 3.382602,0 0.83081,2.78916 z"
       style="color:#000000;font-style:normal;font-variant:normal;font-weight:500;font-stretch:normal;font-size:14.83596039px;line-height:125%;font-family:'Source Code Pro';-inkscape-font-specification:'Source Code Pro Medium';letter-spacing:0px;word-spacing:0px;clip-rule:nonzero;display:inline;overflow:visible;visibility:visible;opacity:1;isolation:auto;mix-blend-mode:normal;color-interpolation:sRGB;color-interpolation-filters:linearRGB;solid-color:#000000;solid-opacity:1;fill:#e49700;fill-opacity:1;fill-rule:nonzero;stroke:none;stroke-width:1;stroke-linecap:butt;stroke-linejoin:miter;stroke-miterlimit:4;stroke-dasharray:none;stroke-dashoffset:0;stroke-opacity:1;color-rendering:auto;image-rendering:auto;shape-rendering:auto;text-rendering:auto;enable-background:accumulate"
       id="path20657"
       inkscape:connector-curvature="0" /><path
       d="m 106.69437,101.91691 2.37375,0 0,6.80971 c 0,1.75064 0.86049,2.71498 2.47761,2.71498 0.83081,0 1.33523,-0.19287 2.01769,-0.41541 l -0.35607,-1.09786 c -0.51926,0.2077 -0.91983,0.31155 -1.30556,0.31155 -0.80114,0 -1.36491,-0.4154 -1.36491,-1.42425 l 0,-8.07076 -3.84251,0 0,1.17204 z"
       style="color:#000000;font-style:normal;font-variant:normal;font-weight:500;font-stretch:normal;font-size:14.83596039px;line-height:125%;font-family:'Source Code Pro';-inkscape-font-specification:'Source Code Pro Medium';letter-spacing:0px;word-spacing:0px;clip-rule:nonzero;display:inline;overflow:visible;visibility:visible;opacity:1;isolation:auto;mix-blend-mode:normal;color-interpolation:sRGB;color-interpolation-filters:linearRGB;solid-color:#000000;solid-opacity:1;fill:#e23200;fill-opacity:1;fill-rule:nonzero;stroke:none;stroke-width:1;stroke-linecap:butt;stroke-linejoin:miter;stroke-miterlimit:4;stroke-dasharray:none;stroke-dashoffset:0;stroke-opacity:1;color-rendering:auto;image-rendering:auto;shape-rendering:auto;text-rendering:auto;enable-background:accumulate"
       id="path20659"
       inkscape:connector-curvature="0" /><path
       d="m 115.59015,107.64359 c 0,2.40343 1.72097,3.79801 3.99087,3.79801 1.05335,0 2.09187,-0.40058 2.90785,-1.1127 l -0.62311,-0.9495 c -0.5786,0.47475 -1.29073,0.86048 -2.16605,0.86048 -1.54294,0 -2.59629,-1.03851 -2.59629,-2.59629 0,-1.55777 1.08302,-2.59629 2.6408,-2.59629 0.71212,0 1.30556,0.28188 1.88416,0.75663 l 0.71213,-0.93466 c -0.59344,-0.57861 -1.4836,-1.03852 -2.67047,-1.03852 -2.19573,0 -4.07989,1.39458 -4.07989,3.81284 z"
       style="color:#000000;font-style:normal;font-variant:normal;font-weight:500;font-stretch:normal;font-size:14.83596039px;line-height:125%;font-family:'Source Code Pro';-inkscape-font-specification:'Source Code Pro Medium';letter-spacing:0px;word-spacing:0px;clip-rule:nonzero;display:inline;overflow:visible;visibility:visible;opacity:1;isolation:auto;mix-blend-mode:normal;color-interpolation:sRGB;color-interpolation-filters:linearRGB;solid-color:#000000;solid-opacity:1;fill:#1c9700;fill-opacity:1;fill-rule:nonzero;stroke:none;stroke-width:1;stroke-linecap:butt;stroke-linejoin:miter;stroke-miterlimit:4;stroke-dasharray:none;stroke-dashoffset:0;stroke-opacity:1;color-rendering:auto;image-rendering:auto;shape-rendering:auto;text-rendering:auto;enable-background:accumulate"
       id="path20661"
       inkscape:connector-curvature="0" /><path
       d="m 124.18921,107.64359 c 0,2.40343 1.72097,3.79801 3.61997,3.79801 1.89901,0 3.61998,-1.39458 3.61998,-3.79801 0,-2.41826 -1.72097,-3.81284 -3.61998,-3.81284 -1.899,0 -3.61997,1.39458 -3.61997,3.81284 z m 1.51327,0 c 0,-1.55778 0.81597,-2.59629 2.1067,-2.59629 1.29073,0 2.10671,1.03851 2.10671,2.59629 0,1.55778 -0.81598,2.59629 -2.10671,2.59629 -1.29073,0 -2.1067,-1.03851 -2.1067,-2.59629 z"
       style="color:#000000;font-style:normal;font-variant:normal;font-weight:500;font-stretch:normal;font-size:14.83596039px;line-height:125%;font-family:'Source Code Pro';-inkscape-font-specification:'Source Code Pro Medium';letter-spacing:0px;word-spacing:0px;clip-rule:nonzero;display:inline;overflow:visible;visibility:visible;opacity:1;isolation:auto;mix-blend-mode:normal;color-interpolation:sRGB;color-interpolation-filters:linearRGB;solid-color:#000000;solid-opacity:1;fill:#e49700;fill-opacity:1;fill-rule:nonzero;stroke:none;stroke-width:1;stroke-linecap:butt;stroke-linejoin:miter;stroke-miterlimit:4;stroke-dasharray:none;stroke-dashoffset:0;stroke-opacity:1;color-rendering:auto;image-rendering:auto;shape-rendering:auto;text-rendering:auto;enable-background:accumulate"
       id="path20663"
       inkscape:connector-curvature="0" /><path
       d="m 135.1917,108.40022 c 0,1.80999 0.72696,3.04138 2.87817,3.04138 0.81598,0 1.64679,-0.19287 2.29958,-0.41541 l -0.29672,-1.08303 c -0.48959,0.19287 -1.02368,0.31156 -1.66163,0.31156 -1.3204,0 -1.75064,-0.60827 -1.75064,-1.8545 l 0,-3.20456 3.4271,0 0,-1.18688 -3.4271,0 0,-2.00285 -1.21655,0 -0.19287,2.00285 -2.04736,0.0742 0,1.1127 1.98802,0 0,3.20456 z"
       style="color:#000000;font-style:normal;font-variant:normal;font-weight:500;font-stretch:normal;font-size:14.83596039px;line-height:125%;font-family:'Source Code Pro';-inkscape-font-specification:'Source Code Pro Medium';letter-spacing:0px;word-spacing:0px;clip-rule:nonzero;display:inline;overflow:visible;visibility:visible;opacity:1;isolation:auto;mix-blend-mode:normal;color-interpolation:sRGB;color-interpolation-filters:linearRGB;solid-color:#000000;solid-opacity:1;fill:#e23200;fill-opacity:1;fill-rule:nonzero;stroke:none;stroke-width:1;stroke-linecap:butt;stroke-linejoin:miter;stroke-miterlimit:4;stroke-dasharray:none;stroke-dashoffset:0;stroke-opacity:1;color-rendering:auto;image-rendering:auto;shape-rendering:auto;text-rendering:auto;enable-background:accumulate"
       id="path20665"
       inkscape:connector-curvature="0" /><path
       d="m 142.1143,107.64359 c 0,2.38859 1.75064,3.79801 3.93152,3.79801 1.1127,0 2.0622,-0.3709 2.81884,-0.84565 l -0.51926,-0.93467 c -0.65278,0.38574 -1.3204,0.62311 -2.10671,0.62311 -1.45392,0 -2.52211,-0.84565 -2.61113,-2.2699 l 5.45964,0 c 0.0297,-0.17803 0.0742,-0.45992 0.0742,-0.75663 0,-2.0177 -1.21655,-3.42711 -3.33809,-3.42711 -1.88417,0 -3.70899,1.43909 -3.70899,3.81284 z m 1.49843,-0.63795 c 0.19286,-1.29072 1.1572,-2.01769 2.24023,-2.01769 1.24622,0 1.94351,0.72697 1.94351,2.01769 l -4.18374,0 z"
       style="color:#000000;font-style:normal;font-variant:normal;font-weight:500;font-stretch:normal;font-size:14.83596039px;line-height:125%;font-family:'Source Code Pro';-inkscape-font-specification:'Source Code Pro Medium';letter-spacing:0px;word-spacing:0px;clip-rule:nonzero;display:inline;overflow:visible;visibility:visible;opacity:1;isolation:auto;mix-blend-mode:normal;color-interpolation:sRGB;color-interpolation-filters:linearRGB;solid-color:#000000;solid-opacity:1;fill:#1c9700;fill-opacity:1;fill-rule:nonzero;stroke:none;stroke-width:1;stroke-linecap:butt;stroke-linejoin:miter;stroke-miterlimit:4;stroke-dasharray:none;stroke-dashoffset:0;stroke-opacity:1;color-rendering:auto;image-rendering:auto;shape-rendering:auto;text-rendering:auto;enable-background:accumulate"
       id="path20667"
       inkscape:connector-curvature="0" /><path
       d="m 151.03975,110.31406 c 0.89015,0.60828 2.16605,1.12754 3.54579,1.12754 2.13638,0 3.32326,-0.99401 3.32326,-2.21056 0,-1.14237 -1.02369,-1.70614 -2.83367,-2.16605 -1.24622,-0.31156 -2.12155,-0.63795 -2.12155,-1.18688 0,-0.51926 0.41541,-0.91983 1.6468,-0.91983 0.86048,0 1.61712,0.31156 2.2699,0.7418 l 0.68245,-0.91983 c -0.72696,-0.48959 -1.82482,-0.9495 -2.96719,-0.9495 -2.01769,0 -3.11555,0.90499 -3.11555,2.12154 0,1.05335 1.27589,1.70614 2.71498,2.07703 1.60228,0.40058 2.24023,0.75664 2.24023,1.29073 0,0.56377 -0.56377,0.99401 -1.79515,0.99401 -1.20171,0 -2.07704,-0.3709 -2.89301,-0.9495 l -0.69729,0.9495 z"
       style="color:#000000;font-style:normal;font-variant:normal;font-weight:500;font-stretch:normal;font-size:14.83596039px;line-height:125%;font-family:'Source Code Pro';-inkscape-font-specification:'Source Code Pro Medium';letter-spacing:0px;word-spacing:0px;clip-rule:nonzero;display:inline;overflow:visible;visibility:visible;opacity:1;isolation:auto;mix-blend-mode:normal;color-interpolation:sRGB;color-interpolation-filters:linearRGB;solid-color:#000000;solid-opacity:1;fill:#e49700;fill-opacity:1;fill-rule:nonzero;stroke:none;stroke-width:1;stroke-linecap:butt;stroke-linejoin:miter;stroke-miterlimit:4;stroke-dasharray:none;stroke-dashoffset:0;stroke-opacity:1;color-rendering:auto;image-rendering:auto;shape-rendering:auto;text-rendering:auto;enable-background:accumulate"
       id="path20669"
       inkscape:connector-curvature="0" /><path
       d="m 161.87904,108.40022 c 0,1.80999 0.72696,3.04138 2.87817,3.04138 0.81598,0 1.64679,-0.19287 2.29958,-0.41541 l -0.29672,-1.08303 c -0.48959,0.19287 -1.02368,0.31156 -1.66163,0.31156 -1.3204,0 -1.75064,-0.60827 -1.75064,-1.8545 l 0,-3.20456 3.4271,0 0,-1.18688 -3.4271,0 0,-2.00285 -1.21655,0 -0.19287,2.00285 -2.04736,0.0742 0,1.1127 1.98802,0 0,3.20456 z"
       style="color:#000000;font-style:normal;font-variant:normal;font-weight:500;font-stretch:normal;font-size:14.83596039px;line-height:125%;font-family:'Source Code Pro';-inkscape-font-specification:'Source Code Pro Medium';letter-spacing:0px;word-spacing:0px;clip-rule:nonzero;display:inline;overflow:visible;visibility:visible;opacity:1;isolation:auto;mix-blend-mode:normal;color-interpolation:sRGB;color-interpolation-filters:linearRGB;solid-color:#000000;solid-opacity:1;fill:#e23200;fill-opacity:1;fill-rule:nonzero;stroke:none;stroke-width:1;stroke-linecap:butt;stroke-linejoin:miter;stroke-miterlimit:4;stroke-dasharray:none;stroke-dashoffset:0;stroke-opacity:1;color-rendering:auto;image-rendering:auto;shape-rendering:auto;text-rendering:auto;enable-background:accumulate"
       id="path20671"
       inkscape:connector-curvature="0" /></g></svg>